<?xml version="1.0" encoding="UTF-8" standalone="no"?>
<!-- Created with Inkscape (http://www.inkscape.org/) -->

<svg
   xmlns:dc="http://purl.org/dc/elements/1.1/"
   xmlns:cc="http://creativecommons.org/ns#"
   xmlns:rdf="http://www.w3.org/1999/02/22-rdf-syntax-ns#"
   xmlns:svg="http://www.w3.org/2000/svg"
   xmlns="http://www.w3.org/2000/svg"
   xmlns:sodipodi="http://sodipodi.sourceforge.net/DTD/sodipodi-0.dtd"
   xmlns:inkscape="http://www.inkscape.org/namespaces/inkscape"
   width="100mm"
   height="200mm"
   viewBox="0 0 100 200"
   version="1.1"
   id="svg8"
   inkscape:version="0.92.3 (2405546, 2018-03-11)"
   sodipodi:docname="background.svg">
  <defs
     id="defs2" />
  <sodipodi:namedview
     id="base"
     pagecolor="#ffffff"
     bordercolor="#666666"
     borderopacity="1.0"
     inkscape:pageopacity="0.0"
     inkscape:pageshadow="2"
     inkscape:zoom="0.7"
     inkscape:cx="-24.79026"
     inkscape:cy="343.28026"
     inkscape:document-units="mm"
     inkscape:current-layer="layer1"
     showgrid="false"
     inkscape:window-width="1227"
     inkscape:window-height="1349"
     inkscape:window-x="30"
     inkscape:window-y="53"
     inkscape:window-maximized="0" />
  <metadata
     id="metadata5">
    <rdf:RDF>
      <cc:Work
         rdf:about="">
        <dc:format>image/svg+xml</dc:format>
        <dc:type
           rdf:resource="http://purl.org/dc/dcmitype/StillImage" />
        <dc:title></dc:title>
      </cc:Work>
    </rdf:RDF>
  </metadata>
  <g
     inkscape:label="Layer 1"
     inkscape:groupmode="layer"
     id="layer1"
     transform="translate(0,-97)">
    <path
       style="opacity:0.128;fill:#000000;fill-opacity:1;fill-rule:nonzero;stroke:none;stroke-width:22.08986473;stroke-linejoin:round;stroke-miterlimit:4;stroke-dasharray:none;stroke-opacity:1"
       d="m 45.34133,172.17972 a 11.083609,11.083609 0 0 0 -10.7518,13.96504 L 51.9802,250.6726 A 39.288616,39.288616 0 0 0 44.67522,249.9605 39.288616,39.288616 0 0 0 5.38666,289.24956 39.288616,39.288616 0 0 0 6.16181,297 H 29.5087 A 16.83798,16.83798 0 0 1 28.10465,290.31824 16.83798,16.83798 0 0 1 44.94238,273.4805 16.83798,16.83798 0 0 1 61.78063,290.31824 16.83798,16.83798 0 0 1 60.39157,297 h 22.75985 a 39.288616,39.288616 0 0 0 0.81235,-7.75044 39.288616,39.288616 0 0 0 -0.68626,-7.16544 l 0.11679,-0.0315 -1.10071,-4.08401 a 39.288616,39.288616 0 0 0 -0.10232,-0.37877 L 62.78471,205.58802 100,226.15007 V 200.82603 L 50.64798,173.56051 a 11.083609,11.083609 0 0 0 -5.30665,-1.38079 z"
       id="path830"
       inkscape:connector-curvature="0" />
  </g>
</svg>
