<?xml version="1.0" encoding="UTF-8" standalone="no"?>
<!-- Created with Inkscape (http://www.inkscape.org/) -->

<svg
   xmlns:dc="http://purl.org/dc/elements/1.1/"
   xmlns:cc="http://creativecommons.org/ns#"
   xmlns:rdf="http://www.w3.org/1999/02/22-rdf-syntax-ns#"
   xmlns:svg="http://www.w3.org/2000/svg"
   xmlns="http://www.w3.org/2000/svg"
   xmlns:sodipodi="http://sodipodi.sourceforge.net/DTD/sodipodi-0.dtd"
   xmlns:inkscape="http://www.inkscape.org/namespaces/inkscape"
   width="100mm"
   height="100mm"
   viewBox="0 0 100 100"
   version="1.1"
   id="svg8"
   inkscape:version="0.92.3 (2405546, 2018-03-11)"
   sodipodi:docname="alarm.svg"
   inkscape:export-filename="/home/tyler/workspace/brainframe/brainframe/client/ui/resources/images/icons/alarm.png"
   inkscape:export-xdpi="88.050003"
   inkscape:export-ydpi="88.050003">
  <defs
     id="defs2" />
  <sodipodi:namedview
     id="base"
     pagecolor="#ffffff"
     bordercolor="#666666"
     borderopacity="1.0"
     inkscape:pageopacity="0.0"
     inkscape:pageshadow="2"
     inkscape:zoom="1.979899"
     inkscape:cx="87.402935"
     inkscape:cy="188.35094"
     inkscape:document-units="mm"
     inkscape:current-layer="layer1"
     showgrid="false"
     inkscape:window-width="2492"
     inkscape:window-height="1349"
     inkscape:window-x="30"
     inkscape:window-y="53"
     inkscape:window-maximized="0" />
  <metadata
     id="metadata5">
    <rdf:RDF>
      <cc:Work
         rdf:about="">
        <dc:format>image/svg+xml</dc:format>
        <dc:type
           rdf:resource="http://purl.org/dc/dcmitype/StillImage" />
        <dc:title />
      </cc:Work>
    </rdf:RDF>
  </metadata>
  <g
     inkscape:label="Layer 1"
     inkscape:groupmode="layer"
     id="layer1"
     transform="translate(0,-197)">
    <path
       style="color:#000000;font-style:normal;font-variant:normal;font-weight:normal;font-stretch:normal;font-size:medium;line-height:normal;font-family:sans-serif;font-variant-ligatures:normal;font-variant-position:normal;font-variant-caps:normal;font-variant-numeric:normal;font-variant-alternates:normal;font-feature-settings:normal;text-indent:0;text-align:start;text-decoration:none;text-decoration-line:none;text-decoration-style:solid;text-decoration-color:#000000;letter-spacing:normal;word-spacing:normal;text-transform:none;writing-mode:lr-tb;direction:ltr;text-orientation:mixed;dominant-baseline:auto;baseline-shift:baseline;text-anchor:start;white-space:normal;shape-padding:0;clip-rule:nonzero;display:inline;overflow:visible;visibility:visible;opacity:1;isolation:auto;mix-blend-mode:normal;color-interpolation:sRGB;color-interpolation-filters:linearRGB;solid-color:#000000;solid-opacity:1;vector-effect:none;fill:#000000;fill-opacity:1;fill-rule:nonzero;stroke:none;stroke-width:37.66383743;stroke-linecap:butt;stroke-linejoin:round;stroke-miterlimit:4;stroke-dasharray:none;stroke-dashoffset:0;stroke-opacity:1;color-rendering:auto;image-rendering:auto;shape-rendering:auto;text-rendering:auto;enable-background:accumulate"
       d="M 190.08398 22.037109 C 189.64553 22.02606 189.20413 22.029 188.76172 22.048828 C 182.31006 22.337962 176.45796 25.914215 173.25391 31.521484 L 4.1347656 327.75586 C -3.0296489 340.30903 6.0306228 355.92087 20.484375 355.92578 L 357.46875 355.92578 C 371.8962 355.922 380.95947 340.35947 373.84766 327.80664 L 205.99219 31.580078 C 202.71735 25.80059 196.66076 22.202849 190.08398 22.037109 z M 188.72461 116.64062 A 16.590751 16.590751 0 0 1 205.56445 133.46484 L 205.56445 232.96484 A 16.590751 16.590751 0 1 1 172.38867 232.96484 L 172.38867 133.46484 A 16.590751 16.590751 0 0 1 188.72461 116.64062 z M 188.77539 266.37305 A 18.559916 18.559916 0 0 1 206.64453 279.24805 L 206.6543 279.2793 A 18.559916 18.559916 0 0 1 194.63672 302.60742 A 18.559916 18.559916 0 0 1 171.30273 290.59961 A 18.559916 18.559916 0 0 1 183.30078 267.26172 A 18.559916 18.559916 0 0 1 188.77539 266.37305 z "
       transform="matrix(0.26458333,0,0,0.26458333,0,197)"
       id="path834" />
    <text
       xml:space="preserve"
       style="font-style:normal;font-weight:normal;font-size:13.18315983px;line-height:1.25;font-family:sans-serif;letter-spacing:0px;word-spacing:0px;fill:#000000;fill-opacity:1;stroke:none;stroke-width:0.329579"
       x="-1.8067456"
       y="197.32011"
       id="text838"><tspan
         sodipodi:role="line"
         id="tspan836"
         x="-1.8067456"
         y="208.98412"
         style="stroke-width:0.329579" /></text>
  </g>
</svg>
