<?xml version="1.0" encoding="UTF-8" standalone="no"?>
<!-- Created with Inkscape (http://www.inkscape.org/) -->

<svg
   xmlns:dc="http://purl.org/dc/elements/1.1/"
   xmlns:cc="http://creativecommons.org/ns#"
   xmlns:rdf="http://www.w3.org/1999/02/22-rdf-syntax-ns#"
   xmlns:svg="http://www.w3.org/2000/svg"
   xmlns="http://www.w3.org/2000/svg"
   xmlns:sodipodi="http://sodipodi.sourceforge.net/DTD/sodipodi-0.dtd"
   xmlns:inkscape="http://www.inkscape.org/namespaces/inkscape"
   width="100mm"
   height="100mm"
   viewBox="0 0 100 100"
   version="1.1"
   id="svg8"
   inkscape:version="0.92.3 (2405546, 2018-03-11)"
   sodipodi:docname="alert.svg"
   inkscape:export-filename="/home/tyler/workspace/brainframe/brainframe/client/ui/resources/images/icons/alert.png"
   inkscape:export-xdpi="88.050003"
   inkscape:export-ydpi="88.050003">
  <defs
     id="defs2" />
  <sodipodi:namedview
     id="base"
     pagecolor="#ffffff"
     bordercolor="#666666"
     borderopacity="1.0"
     inkscape:pageopacity="0.0"
     inkscape:pageshadow="2"
     inkscape:zoom="1.979899"
     inkscape:cx="79.040257"
     inkscape:cy="173.15426"
     inkscape:document-units="mm"
     inkscape:current-layer="layer1"
     showgrid="false"
     inkscape:window-width="2492"
     inkscape:window-height="1349"
     inkscape:window-x="30"
     inkscape:window-y="53"
     inkscape:window-maximized="0" />
  <metadata
     id="metadata5">
    <rdf:RDF>
      <cc:Work
         rdf:about="">
        <dc:format>image/svg+xml</dc:format>
        <dc:type
           rdf:resource="http://purl.org/dc/dcmitype/StillImage" />
        <dc:title />
      </cc:Work>
    </rdf:RDF>
  </metadata>
  <g
     inkscape:label="Layer 1"
     inkscape:groupmode="layer"
     id="layer1"
     transform="translate(0,-197)">
    <path
       style="fill:#ff9800;fill-opacity:1;stroke:none;stroke-width:40.66250229;stroke-linecap:round;stroke-linejoin:round;stroke-miterlimit:4;stroke-dasharray:none;stroke-opacity:1"
       d="M 188.97656 1.8457031 A 187.13076 187.13076 0 0 0 1.8457031 188.97656 A 187.13076 187.13076 0 0 0 188.97656 376.10742 A 187.13076 187.13076 0 0 0 376.10742 188.97656 A 187.13076 187.13076 0 0 0 188.97656 1.8457031 z M 188.64453 57.822266 A 21.858282 21.858282 0 0 1 210.83398 79.982422 L 210.83398 211.07812 A 21.858282 21.858282 0 1 1 167.11914 211.07812 L 167.11914 79.982422 A 21.858282 21.858282 0 0 1 188.64453 57.822266 z M 188.71289 255.09375 A 24.452658 24.452658 0 0 1 212.25391 272.05664 L 212.26758 272.09766 A 24.452658 24.452658 0 0 1 196.43359 302.83203 A 24.452658 24.452658 0 0 1 165.69141 287.01172 A 24.452658 24.452658 0 0 1 181.49805 256.26367 A 24.452658 24.452658 0 0 1 188.71289 255.09375 z "
       transform="matrix(0.26458333,0,0,0.26458333,0,197)"
       id="path863" />
    <text
       xml:space="preserve"
       style="font-style:normal;font-weight:normal;font-size:14.23275757px;line-height:1.25;font-family:sans-serif;letter-spacing:0px;word-spacing:0px;fill:#000000;fill-opacity:1;stroke:none;stroke-width:0.35581893"
       x="-5.9314208"
       y="189.47604"
       id="text838"><tspan
         sodipodi:role="line"
         id="tspan836"
         x="-5.9314208"
         y="202.0687"
         style="stroke-width:0.35581893" /></text>
  </g>
</svg>
