<?xml version="1.0" encoding="UTF-8" standalone="no"?>
<!-- Created with Inkscape (http://www.inkscape.org/) -->

<svg
   xmlns:dc="http://purl.org/dc/elements/1.1/"
   xmlns:cc="http://creativecommons.org/ns#"
   xmlns:rdf="http://www.w3.org/1999/02/22-rdf-syntax-ns#"
   xmlns:svg="http://www.w3.org/2000/svg"
   xmlns="http://www.w3.org/2000/svg"
   xmlns:sodipodi="http://sodipodi.sourceforge.net/DTD/sodipodi-0.dtd"
   xmlns:inkscape="http://www.inkscape.org/namespaces/inkscape"
   width="100mm"
   height="100mm"
   viewBox="0 0 100 100"
   version="1.1"
   id="svg8"
   inkscape:version="0.92.3 (2405546, 2018-03-11)"
   sodipodi:docname="global_plugin_configuration.svg">
  <defs
     id="defs2" />
  <sodipodi:namedview
     id="base"
     pagecolor="#ffffff"
     bordercolor="#666666"
     borderopacity="1.0"
     inkscape:pageopacity="0.0"
     inkscape:pageshadow="2"
     inkscape:zoom="0.98994949"
     inkscape:cx="68.608057"
     inkscape:cy="276.90963"
     inkscape:document-units="mm"
     inkscape:current-layer="layer1"
     showgrid="false"
     inkscape:window-width="1227"
     inkscape:window-height="1352"
     inkscape:window-x="1295"
     inkscape:window-y="50"
     inkscape:window-maximized="0" />
  <metadata
     id="metadata5">
    <rdf:RDF>
      <cc:Work
         rdf:about="">
        <dc:format>image/svg+xml</dc:format>
        <dc:type
           rdf:resource="http://purl.org/dc/dcmitype/StillImage" />
        <dc:title></dc:title>
      </cc:Work>
    </rdf:RDF>
  </metadata>
  <g
     inkscape:label="Layer 1"
     inkscape:groupmode="layer"
     id="layer1"
     transform="translate(0,-197)">
    <rect
       id="rect3713"
       width="53.753101"
       height="54.366714"
       x="23.799128"
       y="226.92671"
       style="fill:#000000;fill-opacity:1;stroke:#000000;stroke-width:6.37153769;stroke-linejoin:round;stroke-miterlimit:4;stroke-dasharray:none;stroke-opacity:1" />
    <path
       style="fill:#000000;fill-opacity:1;stroke:none;stroke-width:0.29613119px;stroke-linecap:butt;stroke-linejoin:miter;stroke-opacity:1"
       d="m 21.054483,241.30247 c 0,0 -1.34612,6.28191 -3.140946,5.68363 -1.794827,-0.59828 -15.8542978,-17.64912 -14.5081785,5.38448 1.3461197,23.0336 13.3116285,6.58103 14.6577475,5.38447 1.34612,-1.19655 2.841808,6.88017 2.841808,6.88017 z"
       id="path3715"
       inkscape:connector-curvature="0"
       sodipodi:nodetypes="cssscc" />
    <path
       style="fill:#000000;fill-opacity:1;stroke:none;stroke-width:0.29522246px;stroke-linecap:butt;stroke-linejoin:miter;stroke-opacity:1"
       d="m 53.75666,224.6258 c 0,0 -6.262626,-1.34199 -5.666185,-3.13131 0.596441,-1.78931 17.594962,-15.80564 -5.367954,-14.46365 -22.962927,1.34198 -6.560834,13.27078 -5.367953,14.61277 1.192881,1.34199 -6.859055,2.83308 -6.859055,2.83308 z"
       id="path3715-3"
       inkscape:connector-curvature="0"
       sodipodi:nodetypes="cssscc" />
    <path
       style="fill:#ffffff;fill-opacity:1;stroke:none;stroke-width:0.26458332px;stroke-linecap:butt;stroke-linejoin:miter;stroke-opacity:1"
       d="m 67.669502,284.94287 c 0,0 -5.61267,-1.20271 -5.07813,-2.80633 0.53454,-1.60361 15.7689,-14.16528 -4.81085,-12.96257 -20.57976,1.20271 -5.87993,11.8935 -4.81085,13.09621 1.06908,1.20271 -6.1472,2.53906 -6.1472,2.53906 z"
       id="path3715-3-6"
       inkscape:connector-curvature="0"
       sodipodi:nodetypes="cssscc" />
    <path
       style="fill:#000000;fill-opacity:1;stroke:none;stroke-width:0.29717711px;stroke-linecap:butt;stroke-linejoin:miter;stroke-opacity:1"
       d="m 79.941186,253.41546 c 0,0 1.350882,-6.30409 3.152039,-5.7037 1.801169,0.60039 15.910301,17.71145 14.55943,-5.4035 -1.350871,-23.11496 -13.358651,-6.60427 -14.709521,-5.40349 -1.350871,1.20078 -2.851845,-6.90447 -2.851845,-6.90447 z"
       id="path3715-7"
       inkscape:connector-curvature="0"
       sodipodi:nodetypes="cssscc" />
  </g>
</svg>
