<?xml version="1.0" encoding="UTF-8" standalone="no"?>
<!-- Created with Inkscape (http://www.inkscape.org/) -->

<svg
   xmlns:dc="http://purl.org/dc/elements/1.1/"
   xmlns:cc="http://creativecommons.org/ns#"
   xmlns:rdf="http://www.w3.org/1999/02/22-rdf-syntax-ns#"
   xmlns:svg="http://www.w3.org/2000/svg"
   xmlns="http://www.w3.org/2000/svg"
   xmlns:sodipodi="http://sodipodi.sourceforge.net/DTD/sodipodi-0.dtd"
   xmlns:inkscape="http://www.inkscape.org/namespaces/inkscape"
   width="100mm"
   height="100mm"
   viewBox="0 0 100 100"
   version="1.1"
   id="svg8"
   inkscape:version="0.92.3 (2405546, 2018-03-11)"
   sodipodi:docname="global_plugin_config.svg">
  <defs
     id="defs2" />
  <sodipodi:namedview
     id="base"
     pagecolor="#ffffff"
     bordercolor="#666666"
     borderopacity="1.0"
     inkscape:pageopacity="0.0"
     inkscape:pageshadow="2"
     inkscape:zoom="1.979899"
     inkscape:cx="196.42797"
     inkscape:cy="192.85587"
     inkscape:document-units="mm"
     inkscape:current-layer="layer1"
     showgrid="false"
     inkscape:window-width="1227"
     inkscape:window-height="1349"
     inkscape:window-x="1295"
     inkscape:window-y="53"
     inkscape:window-maximized="0" />
  <metadata
     id="metadata5">
    <rdf:RDF>
      <cc:Work
         rdf:about="">
        <dc:format>image/svg+xml</dc:format>
        <dc:type
           rdf:resource="http://purl.org/dc/dcmitype/StillImage" />
        <dc:title />
      </cc:Work>
    </rdf:RDF>
  </metadata>
  <g
     inkscape:label="Layer 1"
     inkscape:groupmode="layer"
     id="layer1"
     transform="translate(0,-197)">
    <path
       style="color:#000000;font-style:normal;font-variant:normal;font-weight:normal;font-stretch:normal;font-size:medium;line-height:normal;font-family:sans-serif;font-variant-ligatures:normal;font-variant-position:normal;font-variant-caps:normal;font-variant-numeric:normal;font-variant-alternates:normal;font-feature-settings:normal;text-indent:0;text-align:start;text-decoration:none;text-decoration-line:none;text-decoration-style:solid;text-decoration-color:#000000;letter-spacing:normal;word-spacing:normal;text-transform:none;writing-mode:lr-tb;direction:ltr;text-orientation:mixed;dominant-baseline:auto;baseline-shift:baseline;text-anchor:start;white-space:normal;shape-padding:0;clip-rule:nonzero;display:inline;overflow:visible;visibility:visible;opacity:1;isolation:auto;mix-blend-mode:normal;color-interpolation:sRGB;color-interpolation-filters:linearRGB;solid-color:#000000;solid-opacity:1;vector-effect:none;fill:#000000;fill-opacity:1;fill-rule:nonzero;stroke:none;stroke-width:24.08140182;stroke-linecap:butt;stroke-linejoin:round;stroke-miterlimit:4;stroke-dasharray:none;stroke-dashoffset:0;stroke-opacity:1;color-rendering:auto;image-rendering:auto;shape-rendering:auto;text-rendering:auto;enable-background:accumulate"
       d="M 89.949219 101.06641 C 83.300247 101.06754 77.909326 106.45649 77.908203 113.10547 L 77.908203 318.58789 C 77.909326 325.23687 83.300247 330.62582 89.949219 330.62695 L 182.84961 330.62695 C 190.61341 328.85585 203.02998 325.46365 200.20117 322.28125 C 196.16055 317.73557 140.60104 277.32888 218.38281 272.7832 C 296.16454 268.23753 238.58671 315.7145 236.56641 321.77539 C 235.30326 325.56482 243.12007 328.7628 249.1582 330.62695 L 293.11328 330.62695 C 299.76225 330.62582 305.15122 325.23687 305.15234 318.58789 L 305.15234 113.10547 C 305.15122 106.45649 299.76225 101.06754 293.11328 101.06641 L 89.949219 101.06641 z "
       id="rect3713"
       transform="matrix(0.26458333,0,0,0.26458333,0,197)" />
    <path
       style="fill:#000000;fill-opacity:1;stroke:none;stroke-width:0.29613119px;stroke-linecap:butt;stroke-linejoin:miter;stroke-opacity:1"
       d="m 21.054483,241.30247 c 0,0 -1.34612,6.28191 -3.140946,5.68363 -1.794827,-0.59828 -15.8542978,-17.64912 -14.5081785,5.38448 1.3461197,23.0336 13.3116285,6.58103 14.6577475,5.38447 1.34612,-1.19655 2.841808,6.88017 2.841808,6.88017 z"
       id="path3715"
       inkscape:connector-curvature="0"
       sodipodi:nodetypes="cssscc" />
    <path
       style="fill:#000000;fill-opacity:1;stroke:none;stroke-width:0.29522246px;stroke-linecap:butt;stroke-linejoin:miter;stroke-opacity:1"
       d="m 53.75666,224.6258 c 0,0 -6.262626,-1.34199 -5.666185,-3.13131 0.596441,-1.78931 17.594962,-15.80564 -5.367954,-14.46365 -22.962927,1.34198 -6.560834,13.27078 -5.367953,14.61277 1.192881,1.34199 -6.859055,2.83308 -6.859055,2.83308 z"
       id="path3715-3"
       inkscape:connector-curvature="0"
       sodipodi:nodetypes="cssscc" />
    <path
       style="fill:#000000;fill-opacity:1;stroke:none;stroke-width:0.29717711px;stroke-linecap:butt;stroke-linejoin:miter;stroke-opacity:1"
       d="m 79.941186,253.41546 c 0,0 1.350882,-6.30409 3.152039,-5.7037 1.801169,0.60039 15.910301,17.71145 14.55943,-5.4035 -1.350871,-23.11496 -13.358651,-6.60427 -14.709521,-5.40349 -1.350871,1.20078 -2.851845,-6.90447 -2.851845,-6.90447 z"
       id="path3715-7"
       inkscape:connector-curvature="0"
       sodipodi:nodetypes="cssscc" />
  </g>
</svg>
