<?xml version="1.0" encoding="UTF-8" standalone="no"?>
<!-- Created with Inkscape (http://www.inkscape.org/) -->

<svg
   xmlns:dc="http://purl.org/dc/elements/1.1/"
   xmlns:cc="http://creativecommons.org/ns#"
   xmlns:rdf="http://www.w3.org/1999/02/22-rdf-syntax-ns#"
   xmlns:svg="http://www.w3.org/2000/svg"
   xmlns="http://www.w3.org/2000/svg"
   xmlns:sodipodi="http://sodipodi.sourceforge.net/DTD/sodipodi-0.dtd"
   xmlns:inkscape="http://www.inkscape.org/namespaces/inkscape"
   width="100mm"
   height="100mm"
   viewBox="0 0 100 100"
   version="1.1"
   id="svg2828"
   inkscape:version="0.92.3 (2405546, 2018-03-11)"
   sodipodi:docname="settings_gear.svg"
   inkscape:export-filename="/home/tyler/workspace/brainframe/brainframe/client/ui/resources/images/icons/settings_gear.png"
   inkscape:export-xdpi="65.019997"
   inkscape:export-ydpi="65.019997">
  <defs
     id="defs2822" />
  <sodipodi:namedview
     id="base"
     pagecolor="#ffffff"
     bordercolor="#666666"
     borderopacity="1.0"
     inkscape:pageopacity="0.0"
     inkscape:pageshadow="2"
     inkscape:zoom="2.8"
     inkscape:cx="114.33034"
     inkscape:cy="187.76736"
     inkscape:document-units="mm"
     inkscape:current-layer="layer1"
     showgrid="false"
     inkscape:window-width="2492"
     inkscape:window-height="1349"
     inkscape:window-x="30"
     inkscape:window-y="53"
     inkscape:window-maximized="0" />
  <metadata
     id="metadata2825">
    <rdf:RDF>
      <cc:Work
         rdf:about="">
        <dc:format>image/svg+xml</dc:format>
        <dc:type
           rdf:resource="http://purl.org/dc/dcmitype/StillImage" />
        <dc:title />
      </cc:Work>
    </rdf:RDF>
  </metadata>
  <g
     inkscape:label="Layer 1"
     inkscape:groupmode="layer"
     id="layer1"
     transform="translate(0,-197)">
    <path
       style="fill:#000000;fill-opacity:1;stroke:none;stroke-width:43.65871429;stroke-linecap:round;stroke-linejoin:round;stroke-miterlimit:4;stroke-dasharray:none;stroke-dashoffset:0;stroke-opacity:1"
       d="M 187.50195 43.132812 A 146.19725 146.19725 0 0 0 144.36914 50.126953 A 146.19725 146.19725 0 0 0 49.865234 233.96875 A 146.19725 146.19725 0 0 0 233.66406 328.55469 A 146.19725 146.19725 0 0 0 328.33008 144.79688 L 328.25195 144.55078 A 146.19725 146.19725 0 0 0 187.50195 43.132812 z M 188.35352 122.16211 A 67.162545 67.162545 0 0 1 253.01367 168.75391 L 253.05078 168.86719 A 67.162545 67.162545 0 0 1 209.56055 253.28516 A 67.162545 67.162545 0 0 1 125.12305 209.83203 A 67.162545 67.162545 0 0 1 168.53906 125.37695 A 67.162545 67.162545 0 0 1 188.35352 122.16211 z "
       transform="matrix(0.26458333,0,0,0.26458333,0,197)"
       id="path3373" />
    <path
       style="fill:#000000;fill-opacity:1;stroke:#000000;stroke-width:1.71108949;stroke-linecap:butt;stroke-linejoin:round;stroke-miterlimit:4;stroke-dasharray:none;stroke-opacity:1"
       d="m 40.939429,210.18979 2.513089,-11.10803 h 13.955793 l 2.368661,11.23572 z"
       id="path3375"
       inkscape:connector-curvature="0"
       sodipodi:nodetypes="ccccc" />
    <path
       style="fill:#000000;fill-opacity:1;stroke:#000000;stroke-width:1.71108949;stroke-linecap:butt;stroke-linejoin:round;stroke-miterlimit:4;stroke-dasharray:none;stroke-opacity:1"
       d="m 87.410136,237.67245 11.108024,2.5131 v 13.95578 l -11.23572,2.36866 z"
       id="path3375-0"
       inkscape:connector-curvature="0"
       sodipodi:nodetypes="ccccc" />
    <path
       style="fill:#000000;fill-opacity:1;stroke:#000000;stroke-width:1.71108949;stroke-linecap:butt;stroke-linejoin:round;stroke-miterlimit:4;stroke-dasharray:none;stroke-opacity:1"
       d="m 59.445647,283.81022 -2.513094,11.10803 H 42.97677 l -2.368662,-11.23573 z"
       id="path3375-0-6"
       inkscape:connector-curvature="0"
       sodipodi:nodetypes="ccccc" />
    <path
       style="fill:#000000;fill-opacity:1;stroke:#000000;stroke-width:1.71108949;stroke-linecap:butt;stroke-linejoin:round;stroke-miterlimit:4;stroke-dasharray:none;stroke-opacity:1"
       d="m 12.589858,237.67245 -11.1080176,2.5131 v 13.95578 l 11.2357146,2.36866 z"
       id="path3375-0-3"
       inkscape:connector-curvature="0"
       sodipodi:nodetypes="ccccc" />
    <path
       style="fill:#000000;fill-opacity:1;stroke:#000000;stroke-width:1.71108949;stroke-linecap:butt;stroke-linejoin:round;stroke-miterlimit:4;stroke-dasharray:none;stroke-opacity:1"
       d="m 70.330289,214.55185 9.631581,-6.07756 9.868236,9.86825 -6.269956,9.61975 z"
       id="path3375-6"
       inkscape:connector-curvature="0"
       sodipodi:nodetypes="ccccc" />
    <path
       style="fill:#000000;fill-opacity:1;stroke:#000000;stroke-width:1.71108949;stroke-linecap:butt;stroke-linejoin:round;stroke-miterlimit:4;stroke-dasharray:none;stroke-opacity:1"
       d="m 29.773295,279.85648 -9.631572,6.07754 -9.868239,-9.86824 6.269948,-9.61976 z"
       id="path3375-6-1"
       inkscape:connector-curvature="0"
       sodipodi:nodetypes="ccccc" />
    <path
       style="fill:#000000;fill-opacity:1;stroke:#000000;stroke-width:1.71108949;stroke-linecap:butt;stroke-linejoin:round;stroke-miterlimit:4;stroke-dasharray:none;stroke-opacity:1"
       d="m 69.686614,280.22266 9.631571,6.07752 9.86824,-9.86823 -6.269949,-9.61975 z"
       id="path3375-6-1-0"
       inkscape:connector-curvature="0"
       sodipodi:nodetypes="ccccc" />
    <path
       style="fill:#000000;fill-opacity:1;stroke:#000000;stroke-width:1.71108949;stroke-linecap:butt;stroke-linejoin:round;stroke-miterlimit:4;stroke-dasharray:none;stroke-opacity:1"
       d="m 30.311806,214.1946 -9.63157,-6.07753 -9.868239,9.86825 6.269947,9.61975 z"
       id="path3375-6-1-0-5"
       inkscape:connector-curvature="0"
       sodipodi:nodetypes="ccccc" />
  </g>
</svg>
