<?xml version="1.0" encoding="UTF-8" standalone="no"?>
<!-- Created with Inkscape (http://www.inkscape.org/) -->

<svg
   xmlns:osb="http://www.openswatchbook.org/uri/2009/osb"
   xmlns:dc="http://purl.org/dc/elements/1.1/"
   xmlns:cc="http://creativecommons.org/ns#"
   xmlns:rdf="http://www.w3.org/1999/02/22-rdf-syntax-ns#"
   xmlns:svg="http://www.w3.org/2000/svg"
   xmlns="http://www.w3.org/2000/svg"
   xmlns:sodipodi="http://sodipodi.sourceforge.net/DTD/sodipodi-0.dtd"
   xmlns:inkscape="http://www.inkscape.org/namespaces/inkscape"
   width="100mm"
   height="100mm"
   viewBox="0 0 100 100"
   version="1.1"
   id="svg4949"
   sodipodi:docname="stream_plugin_config.svg"
   inkscape:version="0.92.3 (2405546, 2018-03-11)">
  <defs
     id="defs4943">
    <linearGradient
       id="linearGradient2154"
       osb:paint="solid">
      <stop
         style="stop-color:#ffffff;stop-opacity:1;"
         offset="0"
         id="stop2152" />
    </linearGradient>
  </defs>
  <sodipodi:namedview
     id="base"
     pagecolor="#ffffff"
     bordercolor="#666666"
     borderopacity="1.0"
     inkscape:pageopacity="0.0"
     inkscape:pageshadow="2"
     inkscape:zoom="2.8"
     inkscape:cx="156.82486"
     inkscape:cy="198.39031"
     inkscape:document-units="mm"
     inkscape:current-layer="layer1"
     showgrid="false"
     inkscape:window-width="2492"
     inkscape:window-height="1349"
     inkscape:window-x="30"
     inkscape:window-y="53"
     inkscape:window-maximized="0" />
  <metadata
     id="metadata4946">
    <rdf:RDF>
      <cc:Work
         rdf:about="">
        <dc:format>image/svg+xml</dc:format>
        <dc:type
           rdf:resource="http://purl.org/dc/dcmitype/StillImage" />
        <dc:title />
      </cc:Work>
    </rdf:RDF>
  </metadata>
  <g
     inkscape:label="Layer 1"
     inkscape:groupmode="layer"
     id="layer1"
     transform="translate(0,-197)">
    <path
       style="color:#000000;font-style:normal;font-variant:normal;font-weight:normal;font-stretch:normal;font-size:medium;line-height:normal;font-family:sans-serif;font-variant-ligatures:normal;font-variant-position:normal;font-variant-caps:normal;font-variant-numeric:normal;font-variant-alternates:normal;font-feature-settings:normal;text-indent:0;text-align:start;text-decoration:none;text-decoration-line:none;text-decoration-style:solid;text-decoration-color:#000000;letter-spacing:normal;word-spacing:normal;text-transform:none;writing-mode:lr-tb;direction:ltr;text-orientation:mixed;dominant-baseline:auto;baseline-shift:baseline;text-anchor:start;white-space:normal;shape-padding:0;clip-rule:nonzero;display:inline;overflow:visible;visibility:visible;opacity:1;isolation:auto;mix-blend-mode:normal;color-interpolation:sRGB;color-interpolation-filters:linearRGB;solid-color:#000000;solid-opacity:1;vector-effect:none;fill:#000000;fill-opacity:1;fill-rule:nonzero;stroke:none;stroke-width:14.15321827;stroke-linecap:round;stroke-linejoin:round;stroke-miterlimit:4;stroke-dasharray:none;stroke-dashoffset:0;stroke-opacity:1;color-rendering:auto;image-rendering:auto;shape-rendering:auto;text-rendering:auto;enable-background:accumulate"
       d="M 196.27148 127.24805 C 195.51331 131.29253 194.03317 135.06613 191.33203 138.875 C 188.30761 143.13974 182.68158 146.71205 177.49023 147.46875 C 172.47057 148.20042 168.50158 147.10058 165.39844 145.86523 L 165.39844 195.05078 C 165.40074 197.60914 163.3279 199.68572 160.76953 199.6875 L 64.089844 199.6875 L 64.089844 266.72266 C 64.088778 270.63284 67.257775 273.80184 71.167969 273.80078 L 264.71484 273.80078 C 268.62504 273.80184 271.79403 270.63284 271.79297 266.72266 L 271.79297 134.32812 C 271.79403 130.41795 268.62504 127.24699 264.71484 127.24805 L 196.27148 127.24805 z "
       transform="matrix(0.26458333,0,0,0.26458333,0,197)"
       id="rect2083" />
    <path
       style="fill:#000000;fill-opacity:1;stroke:#000000;stroke-width:3.74470568;stroke-linecap:butt;stroke-linejoin:round;stroke-miterlimit:4;stroke-dasharray:none;stroke-opacity:1"
       d="m 77.825604,257.81196 18.09862,5.67145 v -27.85686 l -18.16246,5.48187 z"
       id="path2085"
       inkscape:connector-curvature="0"
       sodipodi:nodetypes="ccccc" />
    <path
       style="fill:#000000;fill-opacity:1;stroke:none;stroke-width:0.13848749px;stroke-linecap:butt;stroke-linejoin:miter;stroke-opacity:1"
       d="m 12.217551,225.96423 c 0,0 -0.629521,2.93777 -1.468882,2.65797 -0.8393617,-0.27978 -7.4143553,-8.25371 -6.7848333,2.5181 0.62952,10.77179 6.2252593,3.07765 6.8547803,2.51808 0.629521,-0.55958 1.328988,3.21754 1.328988,3.21754 z"
       id="path3715"
       inkscape:connector-curvature="0"
       sodipodi:nodetypes="cssscc" />
    <path
       style="color:#000000;font-style:normal;font-variant:normal;font-weight:normal;font-stretch:normal;font-size:medium;line-height:normal;font-family:sans-serif;font-variant-ligatures:normal;font-variant-position:normal;font-variant-caps:normal;font-variant-numeric:normal;font-variant-alternates:normal;font-feature-settings:normal;text-indent:0;text-align:start;text-decoration:none;text-decoration-line:none;text-decoration-style:solid;text-decoration-color:#000000;letter-spacing:normal;word-spacing:normal;text-transform:none;writing-mode:lr-tb;direction:ltr;text-orientation:mixed;dominant-baseline:auto;baseline-shift:baseline;text-anchor:start;white-space:normal;shape-padding:0;clip-rule:nonzero;display:inline;overflow:visible;visibility:visible;opacity:1;isolation:auto;mix-blend-mode:normal;color-interpolation:sRGB;color-interpolation-filters:linearRGB;solid-color:#000000;solid-opacity:1;vector-effect:none;fill:#000000;fill-opacity:1;fill-rule:nonzero;stroke:none;stroke-width:11.2618084;stroke-linecap:butt;stroke-linejoin:round;stroke-miterlimit:4;stroke-dasharray:none;stroke-dashoffset:0;stroke-opacity:1;color-rendering:auto;image-rendering:auto;shape-rendering:auto;text-rendering:auto;enable-background:accumulate"
       d="M 51.03125 78.431641 C 47.920355 78.431149 45.39792 80.953562 45.398438 84.064453 L 45.398438 180.1543 C 45.397942 183.26519 47.92037 185.7876 51.03125 185.78711 L 94.466797 185.78711 C 98.097109 184.95925 103.91156 183.3719 102.58789 181.88281 C 100.69827 179.75698 74.714741 160.86021 111.08984 158.73438 C 147.46493 156.60858 120.53856 178.81214 119.59375 181.64648 C 119.00279 183.41937 122.66209 184.91548 125.48633 185.78711 L 146.03516 185.78711 C 149.14604 185.7876 151.66846 183.26519 151.66797 180.1543 L 151.66797 84.064453 C 151.66849 80.953562 149.14605 78.431149 146.03516 78.431641 L 51.03125 78.431641 z "
       transform="matrix(0.26458333,0,0,0.26458333,0,197)"
       id="rect3713" />
    <path
       style="fill:#000000;fill-opacity:1;stroke:none;stroke-width:0.13806252px;stroke-linecap:butt;stroke-linejoin:miter;stroke-opacity:1"
       d="m 27.510917,218.16527 c 0,0 -2.928754,-0.62758 -2.649825,-1.46437 0.278929,-0.83678 8.228387,-7.39159 -2.510355,-6.76401 -10.738748,0.62759 -3.068213,6.20616 -2.510354,6.83375 0.557857,0.6276 -3.20768,1.32492 -3.20768,1.32492 z"
       id="path3715-3"
       inkscape:connector-curvature="0"
       sodipodi:nodetypes="cssscc" />
    <path
       style="fill:#000000;fill-opacity:1;stroke:none;stroke-width:0.13897662px;stroke-linecap:butt;stroke-linejoin:miter;stroke-opacity:1"
       d="m 39.756264,231.62894 c 0,0 0.631748,-2.94815 1.47407,-2.66738 0.842326,0.28078 7.440546,8.28286 6.808802,-2.52697 -0.631743,-10.80985 -6.247252,-3.08852 -6.878994,-2.52698 -0.631742,0.56156 -1.333681,-3.22892 -1.333681,-3.22892 z"
       id="path3715-7"
       inkscape:connector-curvature="0"
       sodipodi:nodetypes="cssscc" />
  </g>
</svg>
