<?xml version="1.0" encoding="UTF-8" standalone="no"?>
<!-- Created with Inkscape (http://www.inkscape.org/) -->

<svg
   xmlns:dc="http://purl.org/dc/elements/1.1/"
   xmlns:cc="http://creativecommons.org/ns#"
   xmlns:rdf="http://www.w3.org/1999/02/22-rdf-syntax-ns#"
   xmlns:svg="http://www.w3.org/2000/svg"
   xmlns="http://www.w3.org/2000/svg"
   xmlns:sodipodi="http://sodipodi.sourceforge.net/DTD/sodipodi-0.dtd"
   xmlns:inkscape="http://www.inkscape.org/namespaces/inkscape"
   width="100mm"
   height="100mm"
   viewBox="0 0 100 100"
   version="1.1"
   id="svg7380"
   inkscape:version="0.92.3 (2405546, 2018-03-11)"
   sodipodi:docname="trash.svg"
   inkscape:export-filename="/home/tyler/workspace/brainframe/brainframe/client/ui/resources/images/icons/trash.png"
   inkscape:export-xdpi="65.024002"
   inkscape:export-ydpi="65.024002">
  <defs
     id="defs7374" />
  <sodipodi:namedview
     id="base"
     pagecolor="#ffffff"
     bordercolor="#666666"
     borderopacity="1.0"
     inkscape:pageopacity="0.0"
     inkscape:pageshadow="2"
     inkscape:zoom="2.1179712"
     inkscape:cx="94.392935"
     inkscape:cy="144.69404"
     inkscape:document-units="mm"
     inkscape:current-layer="layer1"
     showgrid="false"
     inkscape:window-width="2492"
     inkscape:window-height="1349"
     inkscape:window-x="30"
     inkscape:window-y="53"
     inkscape:window-maximized="0" />
  <metadata
     id="metadata7377">
    <rdf:RDF>
      <cc:Work
         rdf:about="">
        <dc:format>image/svg+xml</dc:format>
        <dc:type
           rdf:resource="http://purl.org/dc/dcmitype/StillImage" />
        <dc:title />
      </cc:Work>
    </rdf:RDF>
  </metadata>
  <g
     inkscape:label="Layer 1"
     inkscape:groupmode="layer"
     id="layer1"
     transform="translate(0,-197)">
    <path
       style="color:#000000;font-style:normal;font-variant:normal;font-weight:normal;font-stretch:normal;font-size:medium;line-height:normal;font-family:sans-serif;font-variant-ligatures:normal;font-variant-position:normal;font-variant-caps:normal;font-variant-numeric:normal;font-variant-alternates:normal;font-feature-settings:normal;text-indent:0;text-align:start;text-decoration:none;text-decoration-line:none;text-decoration-style:solid;text-decoration-color:#000000;letter-spacing:normal;word-spacing:normal;text-transform:none;writing-mode:lr-tb;direction:ltr;text-orientation:mixed;dominant-baseline:auto;baseline-shift:baseline;text-anchor:start;white-space:normal;shape-padding:0;clip-rule:nonzero;display:inline;overflow:visible;visibility:visible;opacity:1;isolation:auto;mix-blend-mode:normal;color-interpolation:sRGB;color-interpolation-filters:linearRGB;solid-color:#000000;solid-opacity:1;vector-effect:none;fill:#000000;fill-opacity:1;fill-rule:nonzero;stroke:none;stroke-width:18.07458687;stroke-linecap:butt;stroke-linejoin:round;stroke-miterlimit:4;stroke-dasharray:none;stroke-dashoffset:0;stroke-opacity:1;color-rendering:auto;image-rendering:auto;shape-rendering:auto;text-rendering:auto;enable-background:accumulate"
       d="M 79.111328 57.527344 C 74.042978 57.527684 69.965953 61.694582 70.076172 66.761719 L 76.505859 364.42188 C 76.615428 369.3219 80.61048 373.24152 85.511719 373.25781 L 291.96875 373.94531 C 296.88726 373.95665 300.9114 370.03244 301.02539 365.11523 L 307.87695 66.769531 C 307.9914 61.699484 303.91312 57.527608 298.8418 57.527344 L 79.111328 57.527344 z M 188.79102 115.06836 A 12.050928 12.050928 0 0 1 201.02344 127.29297 L 201.02344 295.80664 A 12.050928 12.050928 0 1 1 176.92969 295.80664 L 176.92969 127.29297 A 12.050928 12.050928 0 0 1 188.79102 115.06836 z M 125.39648 115.08398 A 12.050928 12.050928 0 0 1 137.99609 126.92383 L 143.11914 295.4375 A 12.050928 12.050928 0 1 1 119.0332 296.17578 L 113.91016 127.6543 A 12.050928 12.050928 0 0 1 125.39648 115.08398 z M 252.1875 115.92578 A 12.050928 12.050928 0 0 1 264.04297 128.51172 L 258.91992 297.0332 A 12.050928 12.050928 0 1 1 234.83203 296.29492 L 239.95508 127.78125 A 12.050928 12.050928 0 0 1 252.1875 115.92578 z "
       transform="matrix(0.26458333,0,0,0.26458333,0,197)"
       id="path7927" />
    <path
       style="fill:none;stroke:#000000;stroke-width:7.97038984;stroke-linecap:round;stroke-linejoin:miter;stroke-miterlimit:4;stroke-dasharray:none;stroke-opacity:1"
       d="M 16.296341,213.99401 H 83.703659"
       id="path7991"
       inkscape:connector-curvature="0" />
    <path
       style="fill:#000000;fill-opacity:1;stroke:#000000;stroke-width:2.21031165;stroke-linecap:butt;stroke-linejoin:round;stroke-miterlimit:4;stroke-dasharray:none;stroke-opacity:1"
       d="m 25.239015,199.16544 -2.900645,6.65718 h 55.323266 l -3.135827,-6.65718 z"
       id="path7995"
       inkscape:connector-curvature="0"
       sodipodi:nodetypes="ccccc" />
  </g>
</svg>
