<?xml version="1.0" encoding="UTF-8" standalone="no"?>
<!-- Created with Inkscape (http://www.inkscape.org/) -->

<svg
   xmlns:osb="http://www.openswatchbook.org/uri/2009/osb"
   xmlns:dc="http://purl.org/dc/elements/1.1/"
   xmlns:cc="http://creativecommons.org/ns#"
   xmlns:rdf="http://www.w3.org/1999/02/22-rdf-syntax-ns#"
   xmlns:svg="http://www.w3.org/2000/svg"
   xmlns="http://www.w3.org/2000/svg"
   xmlns:sodipodi="http://sodipodi.sourceforge.net/DTD/sodipodi-0.dtd"
   xmlns:inkscape="http://www.inkscape.org/namespaces/inkscape"
   width="100mm"
   height="100mm"
   viewBox="0 0 100 100"
   version="1.1"
   id="svg1538"
   inkscape:version="0.92.3 (2405546, 2018-03-11)"
   sodipodi:docname="stream_settings.svg"
   inkscape:export-filename="/home/tyler/workspace/brainframe/brainframe/client/ui/resources/images/icons/new_stream.png"
   inkscape:export-xdpi="65.019997"
   inkscape:export-ydpi="65.019997">
  <defs
     id="defs1532">
    <linearGradient
       id="linearGradient2154"
       osb:paint="solid">
      <stop
         style="stop-color:#ffffff;stop-opacity:1;"
         offset="0"
         id="stop2152" />
    </linearGradient>
  </defs>
  <sodipodi:namedview
     id="base"
     pagecolor="#ffffff"
     bordercolor="#666666"
     borderopacity="1.0"
     inkscape:pageopacity="0.0"
     inkscape:pageshadow="2"
     inkscape:zoom="0.98994949"
     inkscape:cx="138.34254"
     inkscape:cy="149.65532"
     inkscape:document-units="mm"
     inkscape:current-layer="layer1"
     showgrid="false"
     inkscape:window-width="1227"
     inkscape:window-height="1352"
     inkscape:window-x="1295"
     inkscape:window-y="50"
     inkscape:window-maximized="0"
     showguides="false" />
  <metadata
     id="metadata1535">
    <rdf:RDF>
      <cc:Work
         rdf:about="">
        <dc:format>image/svg+xml</dc:format>
        <dc:type
           rdf:resource="http://purl.org/dc/dcmitype/StillImage" />
        <dc:title></dc:title>
      </cc:Work>
    </rdf:RDF>
  </metadata>
  <g
     inkscape:label="Layer 1"
     inkscape:groupmode="layer"
     id="layer1"
     transform="translate(0,-197)">
    <path
       style="color:#000000;font-style:normal;font-variant:normal;font-weight:normal;font-stretch:normal;font-size:medium;line-height:normal;font-family:sans-serif;font-variant-ligatures:normal;font-variant-position:normal;font-variant-caps:normal;font-variant-numeric:normal;font-variant-alternates:normal;font-feature-settings:normal;text-indent:0;text-align:start;text-decoration:none;text-decoration-line:none;text-decoration-style:solid;text-decoration-color:#000000;letter-spacing:normal;word-spacing:normal;text-transform:none;writing-mode:lr-tb;direction:ltr;text-orientation:mixed;dominant-baseline:auto;baseline-shift:baseline;text-anchor:start;white-space:normal;shape-padding:0;clip-rule:nonzero;display:inline;overflow:visible;visibility:visible;opacity:1;isolation:auto;mix-blend-mode:normal;color-interpolation:sRGB;color-interpolation-filters:linearRGB;solid-color:#000000;solid-opacity:1;vector-effect:none;fill:#000000;fill-opacity:1;fill-rule:nonzero;stroke:none;stroke-width:18.14173317;stroke-linecap:butt;stroke-linejoin:round;stroke-miterlimit:4;stroke-dasharray:none;stroke-dashoffset:0;stroke-opacity:1;color-rendering:auto;image-rendering:auto;shape-rendering:auto;text-rendering:auto;enable-background:accumulate"
       mask="none"
       d="M 161.20508 114.94336 L 161.20508 132.67383 C 161.20659 138.75154 156.95101 144.00073 151.00391 145.25391 L 140.87695 147.38672 C 140.4396 148.51873 139.97511 149.63012 139.48047 150.73828 L 145.04688 159.2793 C 148.36487 164.371 147.66218 171.09095 143.36328 175.38672 L 128.48242 190.26758 C 124.23571 194.51271 117.61503 195.25161 112.53711 192.04688 L 103.9668 186.64453 C 102.67685 187.22424 101.43616 187.89832 100.11328 188.40039 L 98.164062 197.01562 C 96.839557 202.87317 91.636283 207.03286 85.630859 207.0332 L 67.146484 207.0332 L 67.146484 252.80664 C 67.146171 257.81727 71.208106 261.88116 76.21875 261.88086 L 264.61133 261.88086 C 269.62197 261.88116 273.68391 257.81727 273.68359 252.80664 L 273.68359 124.01562 C 273.68391 119.00499 269.62197 114.94306 264.61133 114.94336 L 161.20508 114.94336 z "
       transform="matrix(0.26458333,0,0,0.26458333,0,197)"
       id="rect2138" />
    <path
       style="fill:#000000;fill-opacity:1;stroke:#000000;stroke-width:3.74470568;stroke-linecap:butt;stroke-linejoin:round;stroke-miterlimit:4;stroke-dasharray:none;stroke-opacity:1"
       d="m 78.495077,255.10756 18.098625,5.67145 v -27.85686 l -18.16246,5.48187 z"
       id="path2085"
       inkscape:connector-curvature="0"
       sodipodi:nodetypes="ccccc" />
    <path
       style="fill:#000000;fill-opacity:1;stroke:#ffffff;stroke-width:0;stroke-linecap:round;stroke-linejoin:round;stroke-miterlimit:4;stroke-dasharray:none;stroke-dashoffset:0;stroke-opacity:1"
       d="m 17.277162,210.13308 -0.939478,4.15272 a 15.435793,15.435793 0 0 0 -1.157035,0.30902 15.435793,15.435793 0 0 0 -3.255615,1.50069 l -3.7351726,-2.35697 -3.937744,3.93775 2.411739,3.70003 a 15.435793,15.435793 0 0 0 -1.725993,4.16151 l -4.409033,0.99735 v 5.56917 l 4.398698,0.92707 a 15.435793,15.435793 0 0 0 0.274918,0.97359 15.435793,15.435793 0 0 0 1.358057,3.03082 l -0.02119,-0.0212 -2.502173,3.83905 3.938261,3.93774 3.7858156,-2.389 a 15.435793,15.435793 0 0 0 4.460709,1.86707 l 0.865581,4.10724 h 5.569169 l 0.926558,-4.09639 a 15.435793,15.435793 0 0 0 1.02526,-0.28887 15.435793,15.435793 0 0 0 3.182235,-1.45107 l 3.798735,2.39726 3.938261,-3.93826 -2.428276,-3.72535 a 15.435793,15.435793 0 0 0 1.767334,-4.24522 l 4.384744,-0.92449 v -5.56917 l -4.379577,-0.99064 a 15.435793,15.435793 0 0 0 -0.268716,-0.95446 l -0.0083,-0.0258 a 15.435793,15.435793 0 0 0 -1.297593,-2.92953 l 2.487187,-3.81579 -3.938261,-3.93775 -3.722254,2.34921 A 15.435793,15.435793 0 0 0 23.7341,214.34526 l -0.887801,-4.21215 z m 2.547131,12.06748 a 7.0911531,7.0911531 0 0 1 6.826974,4.91908 l 0.0041,0.0119 a 7.0911531,7.0911531 0 0 1 -4.591968,8.91315 7.0911531,7.0911531 0 0 1 -8.915218,-4.58784 7.0911531,7.0911531 0 0 1 4.584216,-8.91676 7.0911531,7.0911531 0 0 1 2.091862,-0.33952 z"
       id="path3373"
       inkscape:connector-curvature="0" />
  </g>
</svg>
